<?xml version="1.0" encoding="utf-8"?>
<COLLADA xmlns="http://www.collada.org/2005/11/COLLADASchema" version="1.4.1" xmlns:xsi="http://www.w3.org/2001/XMLSchema-instance">
  <asset>
    <contributor>
      <author>Blender User</author>
      <authoring_tool>Blender 3.6.0 commit date:2023-06-27, commit time:08:08, hash:c7fc78b81ecb</authoring_tool>
    </contributor>
    <created>2025-10-23T15:38:50</created>
    <modified>2025-10-23T15:38:50</modified>
    <unit name="meter" meter="1"/>
    <up_axis>Z_UP</up_axis>
  </asset>
  <library_effects>
    <effect id="Материал_002-effect">
      <profile_COMMON>
        <technique sid="common">
          <lambert>
            <emission>
              <color sid="emission">0 0 0 1</color>
            </emission>
            <diffuse>
              <color sid="diffuse">0.9834439 0.9386058 1 1</color>
            </diffuse>
            <index_of_refraction>
              <float sid="ior">1.45</float>
            </index_of_refraction>
          </lambert>
        </technique>
      </profile_COMMON>
    </effect>
    <effect id="Материал_001-effect">
      <profile_COMMON>
        <newparam sid="negro_png-surface">
          <surface type="2D">
            <init_from>negro_png</init_from>
          </surface>
        </newparam>
        <newparam sid="negro_png-sampler">
          <sampler2D>
            <source>negro_png-surface</source>
          </sampler2D>
        </newparam>
        <technique sid="common">
          <lambert>
            <emission>
              <color sid="emission">0 0 0 1</color>
            </emission>
            <diffuse>
              <texture texture="negro_png-sampler" texcoord="UVКарта"/>
            </diffuse>
            <index_of_refraction>
              <float sid="ior">1.45</float>
            </index_of_refraction>
          </lambert>
        </technique>
      </profile_COMMON>
    </effect>
    <effect id="Материал_003-effect">
      <profile_COMMON>
        <technique sid="common">
          <lambert>
            <emission>
              <color sid="emission">0 0 0 1</color>
            </emission>
            <diffuse>
              <color sid="diffuse">0.8000001 0 0.001793919 1</color>
            </diffuse>
            <index_of_refraction>
              <float sid="ior">1.45</float>
            </index_of_refraction>
          </lambert>
        </technique>
      </profile_COMMON>
    </effect>
    <effect id="Материал_004-effect">
      <profile_COMMON>
        <newparam sid="Pr04-11700209_png-surface">
          <surface type="2D">
            <init_from>Pr04-11700209_png</init_from>
          </surface>
        </newparam>
        <newparam sid="Pr04-11700209_png-sampler">
          <sampler2D>
            <source>Pr04-11700209_png-surface</source>
          </sampler2D>
        </newparam>
        <technique sid="common">
          <lambert>
            <emission>
              <color sid="emission">0 0 0 1</color>
            </emission>
            <diffuse>
              <texture texture="Pr04-11700209_png-sampler" texcoord="UVКарта"/>
            </diffuse>
            <index_of_refraction>
              <float sid="ior">1.45</float>
            </index_of_refraction>
          </lambert>
        </technique>
      </profile_COMMON>
    </effect>
    <effect id="Стекло-effect">
      <profile_COMMON>
        <newparam sid="Pr04-11700209_png-surface">
          <surface type="2D">
            <init_from>Pr04-11700209_png</init_from>
          </surface>
        </newparam>
        <newparam sid="Pr04-11700209_png-sampler">
          <sampler2D>
            <source>Pr04-11700209_png-surface</source>
          </sampler2D>
        </newparam>
        <technique sid="common">
          <lambert>
            <emission>
              <color sid="emission">0 0 0 1</color>
            </emission>
            <diffuse>
              <texture texture="Pr04-11700209_png-sampler" texcoord="UVКарта"/>
            </diffuse>
            <index_of_refraction>
              <float sid="ior">1.45</float>
            </index_of_refraction>
          </lambert>
        </technique>
      </profile_COMMON>
    </effect>
    <effect id="Материал-effect">
      <profile_COMMON>
        <newparam sid="Pr04-11700209_png-surface">
          <surface type="2D">
            <init_from>Pr04-11700209_png</init_from>
          </surface>
        </newparam>
        <newparam sid="Pr04-11700209_png-sampler">
          <sampler2D>
            <source>Pr04-11700209_png-surface</source>
          </sampler2D>
        </newparam>
        <technique sid="common">
          <lambert>
            <emission>
              <color sid="emission">0 0 0 1</color>
            </emission>
            <diffuse>
              <texture texture="Pr04-11700209_png-sampler" texcoord="UVКарта"/>
            </diffuse>
            <reflectivity>
              <float sid="specular">1</float>
            </reflectivity>
            <index_of_refraction>
              <float sid="ior">1.45</float>
            </index_of_refraction>
          </lambert>
        </technique>
      </profile_COMMON>
    </effect>
    <effect id="Материал_006-effect">
      <profile_COMMON>
        <technique sid="common">
          <lambert>
            <emission>
              <color sid="emission">0 0 0 1</color>
            </emission>
            <diffuse>
              <color sid="diffuse">0.8 0.8 0.8 1</color>
            </diffuse>
            <index_of_refraction>
              <float sid="ior">1.45</float>
            </index_of_refraction>
          </lambert>
        </technique>
      </profile_COMMON>
    </effect>
  </library_effects>
  <library_images>
    <image id="Pr04-11700209_png" name="Pr04-11700209_png">
      <init_from>Pr04-11700209.png</init_from>
    </image>
    <image id="negro_png" name="negro_png">
      <init_from>negro.png</init_from>
    </image>
  </library_images>
  <library_materials>
    <material id="Материал_002-material" name="Материал.002">
      <instance_effect url="#Материал_002-effect"/>
    </material>
    <material id="Материал_001-material" name="Материал.001">
      <instance_effect url="#Материал_001-effect"/>
    </material>
    <material id="Материал_003-material" name="Материал.003">
      <instance_effect url="#Материал_003-effect"/>
    </material>
    <material id="Материал_004-material" name="Материал.004">
      <instance_effect url="#Материал_004-effect"/>
    </material>
    <material id="Стекло-material" name="Стекло">
      <instance_effect url="#Стекло-effect"/>
    </material>
    <material id="Материал-material" name="Материал">
      <instance_effect url="#Материал-effect"/>
    </material>
    <material id="Материал_006-material" name="Материал.006">
      <instance_effect url="#Материал_006-effect"/>
    </material>
  </library_materials>
  <library_geometries>
    <geometry id="Куб_001-mesh" name="Куб.001">
      <mesh>
        <source id="Куб_001-mesh-positions">
          <float_array id="Куб_001-mesh-positions-array" count="264">0.05086612 0.06097811 0.02226924 -2.252138 0.06097811 0.3656516 -2.357578 -0.07716137 0.337858 0.05086612 -0.1680005 -1.957893 -1.59692 -0.1711977 -2.096176 -2.313637 -0.2077705 -1.99301 0.05086612 0.007541835 -0.4585097 -1.988793 0.007541835 -0.486567 -2.31436 -0.1078813 -0.3723059 0.05086612 -0.3243327 -3.320136 0.05086612 -0.3221085 -3.24393 -1.303187 -0.3366435 -3.27768 -1.304679 -0.3342664 -3.220664 -2.136732 -0.3172321 -3.195352 -2.14605 -0.370961 -3.257118 -1.756943 -0.1783106 -2.099943 -2.35831 0.03093308 0.3091164 -2.130921 0.007541835 -0.4524992 -1.484525 -0.3424537 -3.272359 -1.48578 -0.3400431 -3.215359 -0.74225 0.007541835 -0.4150789 -0.7434735 0.06097811 0.07181739 -0.5458493 -0.1695187 -1.971962 -0.4837608 -0.3301785 -3.309447 -0.4844697 -0.3278818 -3.238042 -1.571964 0.007541835 -0.3910635 -1.682518 0.06097811 0.1318116 -1.136577 -0.1703582 -2.023204 -0.7793872 -0.333411 -3.28701 -0.7804883 -0.331074 -3.220403 -1.694889 -0.1265128 -1.693773 -1.792857 -0.08182793 -1.291372 -1.890825 -0.03714305 -0.8889692 -2.315807 -0.1697552 -1.534743 -2.317976 -0.1317396 -1.076475 -2.31818 -0.09880906 -0.7182958 0.05086612 -0.1241148 -1.583047 0.05086612 -0.08022934 -1.208201 0.05086612 -0.03634387 -0.8333554 -2.037426 -0.03892117 -0.8643601 -1.943932 -0.08538442 -1.276221 -1.850437 -0.1318476 -1.688082 -0.6931498 -0.03672343 -0.8042996 -0.6440497 -0.08098846 -1.19352 -0.5949495 -0.1252534 -1.582741 -1.463117 -0.03693324 -0.7990985 -1.35427 -0.08140832 -1.207134 -1.245424 -0.1258831 -1.615169 2.353871 0.06097811 0.3656516 2.459311 -0.07716137 0.337858 1.698652 -0.1711977 -2.096176 2.41537 -0.2077705 -1.99301 2.090525 0.007541835 -0.486567 2.416092 -0.1078813 -0.3723059 1.404918 -0.3366435 -3.27768 1.406411 -0.3342664 -3.220664 2.238465 -0.3172321 -3.195352 2.247783 -0.370961 -3.257118 1.858675 -0.1783106 -2.099943 2.460043 0.03093308 0.3091164 2.232653 0.007541835 -0.4524992 1.586256 -0.3424537 -3.272359 1.587512 -0.3400431 -3.215359 0.8439823 0.007541835 -0.4150789 0.8452059 0.06097811 0.07181739 0.6475816 -0.1695187 -1.971962 0.5854932 -0.3301785 -3.309447 0.586202 -0.3278818 -3.238042 1.673696 0.007541835 -0.3910635 1.784249 0.06097811 0.1318116 1.238309 -0.1703582 -2.023204 0.8811196 -0.333411 -3.28701 0.8822206 -0.331074 -3.220403 1.79662 -0.1265128 -1.693773 1.894589 -0.08182793 -1.291372 1.992557 -0.03714305 -0.8889692 2.417539 -0.1697552 -1.534743 2.419708 -0.1317396 -1.076475 2.419913 -0.09880906 -0.7182958 2.139158 -0.03892117 -0.8643601 2.045664 -0.08538442 -1.276221 1.952169 -0.1318476 -1.688082 0.7948821 -0.03672343 -0.8042996 0.745782 -0.08098846 -1.19352 0.6966818 -0.1252534 -1.582741 1.564849 -0.03693324 -0.7990985 1.456002 -0.08140832 -1.207134 1.347156 -0.1258831 -1.615169</float_array>
          <technique_common>
            <accessor source="#Куб_001-mesh-positions-array" count="88" stride="3">
              <param name="X" type="float"/>
              <param name="Y" type="float"/>
              <param name="Z" type="float"/>
            </accessor>
          </technique_common>
        </source>
        <source id="Куб_001-mesh-normals">
          <float_array id="Куб_001-mesh-normals-array" count="546">0 0.9928354 -0.1194903 -0.01022857 0.9919906 -0.1258975 0.003195703 0.9927921 -0.119807 -0.03732299 0.9920982 -0.1197844 -0.04066354 0.9919066 -0.120283 -0.03950983 0.9919435 -0.1203632 0 0.9932823 -0.1157167 0.00166881 0.9936484 -0.1125174 0 0.9939324 -0.1099931 -0.004309415 0.9938068 -0.1110379 -0.005533635 0.994136 -0.1079952 -0.2006692 0.9751942 -0.09342467 -0.03074133 0.9970958 -0.06967842 -0.2231547 0.970003 -0.09641706 -0.0399186 0.9874302 -0.1529326 -0.03629887 0.987621 -0.1526017 -0.04028928 0.9874099 -0.1529663 -0.006121397 0.9991285 -0.04129064 -0.009719908 0.9993239 -0.03545767 -0.006662249 0.9992837 -0.03725254 0.02763932 0.9953826 -0.09192246 -0.04385381 0.7783157 -0.6263399 0.03371727 0.99857 -0.0414893 -0.03313422 0.9985311 -0.04287189 -0.03321623 0.9985404 -0.04258793 -0.03324145 0.9985434 -0.04250061 -0.04272633 0.9928897 -0.111106 0.002583801 0.9919384 -0.1266949 -0.07189601 0.9922937 -0.1009171 -0.9911023 0.1025755 -0.08482068 -0.6345817 0.7482761 -0.1933626 -0.9979562 -0.02264964 -0.05975288 -0.09031963 0.9899001 -0.1092716 -0.0944488 0.99018 -0.1030689 -0.1079483 0.9907113 -0.0826947 -0.01223081 0.9994091 -0.03212434 -0.01148027 0.9995009 -0.02943176 -0.01151216 0.9995082 -0.02917248 -0.003095686 0.9939996 -0.1093404 -0.006583213 0.9946553 -0.1030427 0.01474535 0.9943861 -0.1047809 0.01644998 0.9943208 -0.1051453 -0.006206274 0.9909905 -0.133788 0.009049773 0.9914533 -0.1301479 -3.79381e-4 0.9907687 -0.135563 0.02012693 0.9901774 -0.1383607 0.01602393 0.9943029 -0.1053804 0.01766514 0.9942628 -0.1054973 -0.01353311 0.9967487 -0.07942974 -0.001543283 0.9963513 -0.08533382 -0.02939182 0.9970006 -0.07159686 -0.01225155 0.9993974 -0.03247749 0.02248954 0.9943605 -0.1036419 0.02208209 0.9942909 -0.1043942 0.02395927 0.9942288 -0.1045714 0.02063381 0.9944142 -0.1035125 0.01982843 0.9942792 -0.1049572 0.01842439 0.9943978 -0.1040844 -7.98515e-4 0.9940021 -0.1093584 -0.002776145 0.9935744 -0.1131471 0.00184834 0.9940639 -0.1087828 -7.21632e-4 0.9936111 -0.1128568 -0.4348984 0.8989023 -0.05327433 -0.3716392 0.9221728 -0.1071529 -0.5235212 0.8515489 0.02810949 -0.2269958 0.9661552 -0.1225441 -0.2249554 0.9662793 -0.1252971 -0.2517424 0.9637167 -0.08874666 -0.1451627 0.9830467 -0.1120144 -0.1463564 0.9830632 -0.1103026 -0.1657426 0.9827284 -0.08230674 0 0.9935857 -0.1130818 0 0.9932679 -0.1158407 0 0.9932746 -0.1157835 -0.02900147 0.9925501 -0.1183357 -0.03335487 0.9923451 -0.1189063 -0.02838426 0.9925584 -0.1184163 -0.03058123 0.9925072 -0.1182978 -0.03663027 0.9921364 -0.1196824 -0.03407335 0.9923014 -0.1190679 0.01022851 0.9919906 -0.1258975 -8.36535e-4 0.9917174 -0.1284364 0.04066354 0.9919066 -0.120283 0.03732293 0.9920981 -0.1197845 0.03950977 0.9919435 -0.1203631 -0.00166881 0.9936484 -0.1125174 0.004309415 0.9938068 -0.1110379 0.005533635 0.994136 -0.1079951 0.03074133 0.9970958 -0.06967842 0.2006691 0.9751943 -0.09342455 0.2231547 0.970003 -0.096417 0.03629887 0.987621 -0.1526019 0.0399186 0.9874301 -0.1529325 0.04028928 0.9874098 -0.1529663 0.009719908 0.9993239 -0.03545755 0.006121397 0.9991285 -0.04129028 0.006662249 0.9992837 -0.03725248 -0.02763891 0.9953826 -0.09192198 0.04385375 0.7783151 -0.6263406 0.04763764 0.7571805 -0.6514663 0.03321611 0.9985404 -0.04258787 0.03313434 0.998531 -0.04287195 0.03324127 0.9985434 -0.04250049 -0.002583801 0.9919384 -0.126695 0.04272621 0.9928897 -0.1111062 0.07189589 0.9922937 -0.1009171 0.6345814 0.7482762 -0.1933628 0.9911019 0.1025792 -0.08482122 0.9979563 -0.02264547 -0.05975347 0.09444862 0.99018 -0.1030687 0.09031945 0.9899001 -0.1092715 0.1079482 0.9907113 -0.08269447 0.01148027 0.9995009 -0.02943176 0.01223081 0.9994091 -0.03212428 0.01151216 0.9995082 -0.02917248 0.003118872 0.9940041 -0.1092986 0.006583213 0.9946553 -0.1030427 -0.01474535 0.994386 -0.1047809 -0.01644998 0.9943208 -0.1051453 0.006206274 0.9909905 -0.1337881 -0.009049773 0.9914533 -0.130148 3.79384e-4 0.9907687 -0.135563 -0.02012693 0.9901775 -0.1383607 -0.01602393 0.9943029 -0.1053804 -0.01766514 0.9942628 -0.1054974 0.001543283 0.9963513 -0.08533382 0.01353311 0.9967487 -0.07942974 0.02939182 0.9970006 -0.07159692 0.01225155 0.9993974 -0.03247737 -0.02208203 0.9942909 -0.1043941 -0.02248954 0.9943605 -0.103642 -0.02395927 0.9942288 -0.1045714 -0.01982843 0.9942792 -0.1049572 -0.02063381 0.9944142 -0.1035124 -0.01842439 0.9943978 -0.1040844 7.51484e-4 0.9940031 -0.1093492 -0.001895368 0.9940648 -0.1087737 0.002776145 0.9935744 -0.1131472 7.21634e-4 0.9936111 -0.1128568 0.3716387 0.9221731 -0.1071526 0.4348978 0.8989026 -0.05327403 0.5235209 0.8515491 0.02811014 0.224955 0.9662795 -0.1252971 0.2269953 0.9661554 -0.1225442 0.2517417 0.9637168 -0.08874702 0.1463563 0.9830632 -0.1103026 0.1451625 0.9830467 -0.1120144 0.1657425 0.9827284 -0.08230704 0.03335493 0.9923452 -0.1189061 0.02900147 0.9925501 -0.1183356 0.0283842 0.9925583 -0.118416 0.03658354 0.9921393 -0.119672 0.03058123 0.9925072 -0.1182979 0.03412002 0.9922985 -0.1190783 0 0.9928966 -0.1189804 -0.04126012 0.9918932 -0.1201902 -0.01619285 0.9975842 -0.06755483 -0.03597277 0.9876376 -0.1525719 -0.006063997 0.9991071 -0.04181283 -0.0476377 0.7571812 -0.6514657 -0.03310889 0.9985281 -0.04295945 0.03051483 0.9902167 -0.1361605 -0.582597 0.7882369 -0.1981502 -0.07710343 0.9886382 -0.1290335 0.02222251 0.9950372 -0.09699124 -0.2903304 0.9413236 -0.1720995 -0.202642 0.9668954 -0.155079 -0.1259368 0.9821963 -0.1393927 0.04126018 0.9918932 -0.1201901 0.01619279 0.9975842 -0.06755483 0.03597277 0.9876375 -0.152572 0.006063938 0.9991071 -0.04181236 -0.03371685 0.9985699 -0.04148876 0.03310906 0.9985281 -0.04295951 -0.03051483 0.9902168 -0.1361606 0.5825969 0.7882368 -0.1981503 0.07710319 0.9886383 -0.1290334 -0.008299767 0.9936779 -0.1119618 -0.02222251 0.9950371 -0.09699124 0.2903297 0.9413238 -0.1720994 0.2026416 0.9668956 -0.1550788 0.1259366 0.9821963 -0.1393926</float_array>
          <technique_common>
            <accessor source="#Куб_001-mesh-normals-array" count="182" stride="3">
              <param name="X" type="float"/>
              <param name="Y" type="float"/>
              <param name="Z" type="float"/>
            </accessor>
          </technique_common>
        </source>
        <source id="Куб_001-mesh-map-0">
          <float_array id="Куб_001-mesh-map-0-array" count="840">0.3399733 0.4913743 0.3192284 0.5270873 0.3089625 0.5085234 0.3697843 0.4583051 0.3733309 0.4693437 0.36577 0.4634941 0.3353471 0.4830087 0.3089625 0.5085234 0.3043362 0.5001577 0.3168105 0.4494886 0.2904574 0.4750608 0.2857996 0.4666377 0.3394888 0.4348666 0.343087 0.4459453 0.3354743 0.4400555 0.3773454 0.4641548 0.3901062 0.4823221 0.3733309 0.4693437 0.6753731 0.7414659 0.6949681 0.7411158 0.694968 0.7414674 0.6688125 0.7414743 0.6366246 0.7411078 0.6688125 0.7411133 0.6688125 0.7414743 0.6753731 0.7411144 0.6753731 0.7414658 0.2233262 0.5173937 0.2188667 0.5556792 0.202628 0.5420442 0.1866707 0.4866153 0.1733438 0.5174553 0.1659725 0.5112659 0.2160051 0.5112463 0.202628 0.5420442 0.1953069 0.535897 0.7145632 0.741469 0.75 0.7411196 0.75 0.7414718 0.2857996 0.4666377 0.2733097 0.4845435 0.2686519 0.4761204 0.3043362 0.5001577 0.2918146 0.518006 0.2871884 0.5096403 0.3089625 0.5085234 0.3020799 0.5365689 0.2918146 0.518006 0.3893357 0.4486564 0.3941216 0.4771339 0.3773454 0.4641548 0.3817747 0.4428068 0.3773454 0.4641548 0.3697843 0.4583051 0.3514792 0.4193683 0.3471016 0.4407563 0.3394888 0.4348666 0.694968 0.7414674 0.7145633 0.7411172 0.7145632 0.741469 0.3590919 0.4252581 0.3546624 0.4466059 0.3471016 0.4407563 0.3666529 0.4311076 0.3622234 0.4524556 0.3546624 0.4466059 0.3742138 0.4369572 0.3697843 0.4583051 0.3622234 0.4524556 0.2904574 0.4750608 0.2779359 0.4929091 0.2733097 0.4845435 0.2950837 0.4834265 0.2825623 0.5012748 0.2779359 0.4929091 0.2997098 0.491792 0.2871884 0.5096403 0.2825623 0.5012748 0.1940419 0.4928047 0.1806648 0.5236026 0.1733438 0.5174553 0.2013628 0.498952 0.1879859 0.5297498 0.1806648 0.5236026 0.208684 0.5050992 0.1953069 0.535897 0.1879859 0.5297498 0.3214684 0.4579117 0.2950837 0.4834265 0.2904574 0.4750608 0.3260946 0.4662773 0.2997098 0.491792 0.2950837 0.4834265 0.3307209 0.474643 0.3043362 0.5001577 0.2997098 0.491792 0.3471016 0.4407563 0.3506479 0.4517949 0.343087 0.4459453 0.3546624 0.4466059 0.358209 0.4576445 0.3506479 0.4517949 0.3622234 0.4524556 0.36577 0.4634941 0.358209 0.4576445 0.3192284 0.5270873 0.3399733 0.4913743 0.3089625 0.5085234 0.2540419 0.4161724 0.2436376 0.4110558 0.2445817 0.4175479 0.3089625 0.5085234 0.3353471 0.4830087 0.3043362 0.5001577 0.2904574 0.4750608 0.3168105 0.4494886 0.2857996 0.4666377 0.2162013 0.4216746 0.2057324 0.4165671 0.2066763 0.4230594 0.2750307 0.4131206 0.2530979 0.4096801 0.2540419 0.4161724 0.6949681 0.7411158 0.6753731 0.7414659 0.694968 0.7414674 0.6688125 0.7414743 0.6366246 0.7411078 0.6366246 0.7415155 0.6753731 0.7411144 0.6688125 0.7414743 0.6753731 0.7414658 0.2166022 0.5537254 0.2186568 0.5152357 0.1995419 0.5411333 0.1687763 0.5184254 0.180147 0.4868118 0.1610321 0.5127094 0.1995419 0.5411333 0.2109654 0.5095587 0.1918504 0.5354563 0.75 0.7411196 0.7145632 0.741469 0.75 0.7414718 0.2733097 0.4845435 0.2857996 0.4666377 0.2686519 0.4761204 0.2918146 0.518006 0.3043362 0.5001577 0.2871884 0.5096403 0.3020799 0.5365689 0.3089625 0.5085234 0.2918146 0.518006 0.274088 0.4066281 0.2502782 0.390289 0.2530979 0.4096801 0.2530979 0.4096801 0.2408181 0.3916646 0.2436376 0.4110558 0.2152574 0.4151822 0.2029128 0.3971759 0.2057324 0.4165671 0.7145633 0.7411172 0.694968 0.7414674 0.7145632 0.741469 0.2247174 0.4138067 0.2124378 0.3957912 0.2152574 0.4151822 0.2341776 0.4124312 0.2218979 0.3944156 0.2247174 0.4138067 0.2436376 0.4110558 0.2313581 0.39304 0.2341776 0.4124312 0.2779359 0.4929091 0.2904574 0.4750608 0.2733097 0.4845435 0.2825623 0.5012748 0.2950837 0.4834265 0.2779359 0.4929091 0.2871884 0.5096403 0.2997098 0.491792 0.2825623 0.5012748 0.1764677 0.5241023 0.1878911 0.4925278 0.1687763 0.5184254 0.1841591 0.5297793 0.1955824 0.4982048 0.1764677 0.5241023 0.1918504 0.5354563 0.2032739 0.5038817 0.1841591 0.5297793 0.2950837 0.4834265 0.3214684 0.4579117 0.2904574 0.4750608 0.2997098 0.491792 0.3260946 0.4662773 0.2950837 0.4834265 0.3043362 0.5001577 0.3307209 0.474643 0.2997098 0.491792 0.2256614 0.4202991 0.2152574 0.4151822 0.2162013 0.4216746 0.2351216 0.4189234 0.2247174 0.4138067 0.2256614 0.4202991 0.2445817 0.4175479 0.2341776 0.4124312 0.2351216 0.4189234 0.3399733 0.4913743 0.3502404 0.5099405 0.3192284 0.5270873 0.3697843 0.4583051 0.3773454 0.4641548 0.3733309 0.4693437 0.3353471 0.4830087 0.3399733 0.4913743 0.3089625 0.5085234 0.3168105 0.4494886 0.3214684 0.4579117 0.2904574 0.4750608 0.3394888 0.4348666 0.3471016 0.4407563 0.343087 0.4459453 0.3773454 0.4641548 0.3941215 0.4771338 0.3901062 0.4823221 0.6753731 0.7414659 0.6753731 0.7411145 0.6949681 0.7411158 0.6688125 0.7414743 0.6366246 0.7415155 0.6366246 0.7411078 0.6688125 0.7414743 0.6688125 0.7411133 0.6753731 0.7411144 0.2233262 0.5173937 0.2395691 0.5310323 0.2188667 0.5556792 0.1866707 0.4866153 0.1940419 0.4928047 0.1733438 0.5174553 0.2160051 0.5112463 0.2233262 0.5173937 0.202628 0.5420442 0.7145632 0.741469 0.7145633 0.7411172 0.75 0.7411196 0.2857996 0.4666377 0.2904574 0.4750608 0.2733097 0.4845435 0.3043362 0.5001577 0.3089625 0.5085234 0.2918146 0.518006 0.3089625 0.5085234 0.3192284 0.5270873 0.3020799 0.5365689 0.3893357 0.4486564 0.406113 0.4616364 0.3941216 0.4771339 0.3817747 0.4428068 0.3893357 0.4486564 0.3773454 0.4641548 0.3514792 0.4193683 0.3590919 0.4252581 0.3471016 0.4407563 0.694968 0.7414674 0.6949681 0.7411158 0.7145633 0.7411172 0.3590919 0.4252581 0.3666529 0.4311076 0.3546624 0.4466059 0.3666529 0.4311076 0.3742138 0.4369572 0.3622234 0.4524556 0.3742138 0.4369572 0.3817747 0.4428068 0.3697843 0.4583051 0.2904574 0.4750608 0.2950837 0.4834265 0.2779359 0.4929091 0.2950837 0.4834265 0.2997098 0.491792 0.2825623 0.5012748 0.2997098 0.491792 0.3043362 0.5001577 0.2871884 0.5096403 0.1940419 0.4928047 0.2013628 0.498952 0.1806648 0.5236026 0.2013628 0.498952 0.208684 0.5050992 0.1879859 0.5297498 0.208684 0.5050992 0.2160051 0.5112463 0.1953069 0.535897 0.3214684 0.4579117 0.3260946 0.4662773 0.2950837 0.4834265 0.3260946 0.4662773 0.3307209 0.474643 0.2997098 0.491792 0.3307209 0.474643 0.3353471 0.4830087 0.3043362 0.5001577 0.3471016 0.4407563 0.3546624 0.4466059 0.3506479 0.4517949 0.3546624 0.4466059 0.3622234 0.4524556 0.358209 0.4576445 0.3622234 0.4524556 0.3697843 0.4583051 0.36577 0.4634941 0.3192284 0.5270873 0.3502404 0.5099405 0.3399733 0.4913743 0.2540419 0.4161724 0.2530979 0.4096801 0.2436376 0.4110558 0.3089625 0.5085234 0.3399733 0.4913743 0.3353471 0.4830087 0.2904574 0.4750608 0.3214684 0.4579117 0.3168105 0.4494886 0.2162013 0.4216746 0.2152574 0.4151822 0.2057324 0.4165671 0.2750307 0.4131206 0.2740879 0.4066281 0.2530979 0.4096801 0.6949681 0.7411158 0.6753731 0.7411145 0.6753731 0.7414659 0.6688125 0.7414743 0.6688125 0.7411133 0.6366246 0.7411078 0.6753731 0.7411144 0.6688125 0.7411133 0.6688125 0.7414743 0.2166022 0.5537254 0.2357215 0.5278311 0.2186568 0.5152357 0.1687763 0.5184254 0.1878911 0.4925278 0.180147 0.4868118 0.1995419 0.5411333 0.2186568 0.5152357 0.2109654 0.5095587 0.75 0.7411196 0.7145633 0.7411172 0.7145632 0.741469 0.2733097 0.4845435 0.2904574 0.4750608 0.2857996 0.4666377 0.2918146 0.518006 0.3089625 0.5085234 0.3043362 0.5001577 0.3020799 0.5365689 0.3192284 0.5270873 0.3089625 0.5085234 0.274088 0.4066281 0.2712697 0.3872368 0.2502782 0.390289 0.2530979 0.4096801 0.2502782 0.390289 0.2408181 0.3916646 0.2152574 0.4151822 0.2124378 0.3957912 0.2029128 0.3971759 0.7145633 0.7411172 0.6949681 0.7411158 0.694968 0.7414674 0.2247174 0.4138067 0.2218979 0.3944156 0.2124378 0.3957912 0.2341776 0.4124312 0.2313581 0.39304 0.2218979 0.3944156 0.2436376 0.4110558 0.2408181 0.3916646 0.2313581 0.39304 0.2779359 0.4929091 0.2950837 0.4834265 0.2904574 0.4750608 0.2825623 0.5012748 0.2997098 0.491792 0.2950837 0.4834265 0.2871884 0.5096403 0.3043362 0.5001577 0.2997098 0.491792 0.1764677 0.5241023 0.1955824 0.4982048 0.1878911 0.4925278 0.1841591 0.5297793 0.2032739 0.5038817 0.1955824 0.4982048 0.1918504 0.5354563 0.2109654 0.5095587 0.2032739 0.5038817 0.2950837 0.4834265 0.3260946 0.4662773 0.3214684 0.4579117 0.2997098 0.491792 0.3307209 0.474643 0.3260946 0.4662773 0.3043362 0.5001577 0.3353471 0.4830087 0.3307209 0.474643 0.2256614 0.4202991 0.2247174 0.4138067 0.2152574 0.4151822 0.2351216 0.4189234 0.2341776 0.4124312 0.2247174 0.4138067 0.2445817 0.4175479 0.2436376 0.4110558 0.2341776 0.4124312</float_array>
          <technique_common>
            <accessor source="#Куб_001-mesh-map-0-array" count="420" stride="2">
              <param name="S" type="float"/>
              <param name="T" type="float"/>
            </accessor>
          </technique_common>
        </source>
        <vertices id="Куб_001-mesh-vertices">
          <input semantic="POSITION" source="#Куб_001-mesh-positions"/>
        </vertices>
        <triangles material="Материал_001-material" count="20">
          <input semantic="VERTEX" source="#Куб_001-mesh-vertices" offset="0"/>
          <input semantic="NORMAL" source="#Куб_001-mesh-normals" offset="1"/>
          <input semantic="TEXCOORD" source="#Куб_001-mesh-map-0" offset="2" set="0"/>
          <p>11 17 18 29 18 19 28 19 20 18 20 21 13 21 22 19 22 23 18 23 24 12 24 25 11 25 26 23 35 36 10 36 37 9 37 38 28 19 57 24 51 58 23 35 59 72 94 123 54 95 124 71 96 125 61 97 126 56 98 127 57 99 128 55 100 129 61 101 130 54 102 131 10 112 141 66 113 142 9 114 143 67 128 162 71 96 163 66 113 164 11 17 228 12 158 229 29 18 230 18 20 231 14 159 232 13 21 233 18 23 234 19 160 235 12 24 236 23 35 246 24 51 247 10 36 248 28 19 267 29 18 268 24 51 269 72 94 333 55 171 334 54 95 335 61 97 336 62 172 337 56 98 338 55 100 339 62 173 340 61 101 341 10 112 351 67 128 352 66 113 353 67 128 372 72 94 373 71 96 374</p>
        </triangles>
        <triangles material="Материал-material" count="120">
          <input semantic="VERTEX" source="#Куб_001-mesh-vertices" offset="0"/>
          <input semantic="NORMAL" source="#Куб_001-mesh-normals" offset="1"/>
          <input semantic="TEXCOORD" source="#Куб_001-mesh-map-0" offset="2" set="0"/>
          <p>3 0 0 24 1 1 22 2 2 30 3 3 15 4 4 41 5 5 36 6 6 22 2 7 44 7 8 0 8 9 20 9 10 21 10 11 1 11 12 17 12 13 16 13 14 4 14 15 19 15 16 15 16 17 15 26 27 13 27 28 5 28 29 16 29 30 8 30 31 2 31 32 41 32 33 5 33 34 33 34 35 21 10 39 25 38 40 26 39 41 44 7 42 27 40 43 47 41 44 22 2 45 29 42 46 27 43 47 27 43 48 12 44 49 4 45 50 47 41 51 4 46 52 30 47 53 26 48 54 7 49 55 1 50 56 25 52 60 32 53 61 7 54 62 45 55 63 31 56 64 32 53 65 46 57 66 30 47 67 31 56 68 20 9 69 45 58 70 25 38 71 42 59 72 46 60 73 45 58 74 43 61 75 47 41 76 46 60 77 17 62 78 35 63 79 8 64 80 39 65 81 34 66 82 35 67 83 40 68 84 33 69 85 34 70 86 6 71 87 42 59 88 20 9 89 38 72 90 43 61 91 42 59 92 37 73 93 44 7 94 43 61 95 7 74 96 39 75 97 17 76 98 32 77 99 40 78 100 39 75 101 31 79 102 41 5 103 40 78 104 67 80 105 3 0 106 65 81 107 58 82 108 73 83 109 81 84 110 65 81 111 36 6 112 84 85 113 63 86 114 0 8 115 64 87 116 60 88 117 48 89 118 59 90 119 62 91 120 50 92 121 58 93 122 56 103 132 58 104 133 51 105 134 53 106 135 59 107 136 49 108 137 51 109 138 81 110 139 76 111 140 68 115 144 64 87 145 69 116 146 70 117 147 84 85 148 87 118 149 72 119 150 65 81 151 70 120 152 55 121 153 70 120 154 50 122 155 50 123 156 87 118 157 73 124 158 52 125 159 69 126 160 48 127 161 75 129 165 68 130 166 52 131 167 74 132 168 85 133 169 75 129 170 73 124 171 86 134 172 74 132 173 85 135 174 63 86 175 68 115 176 86 136 177 82 137 178 85 135 179 87 118 180 83 138 181 86 136 182 78 139 183 60 140 184 53 141 185 77 142 186 79 143 187 78 144 188 76 145 189 80 146 190 77 147 191 82 137 192 6 71 193 63 86 194 83 138 195 38 72 196 82 137 197 84 85 198 37 73 199 83 138 200 79 148 201 52 149 202 60 150 203 80 151 204 75 152 205 79 148 206 81 84 207 74 153 208 80 151 209 3 0 210 10 154 211 24 1 212 30 3 213 4 155 214 15 4 215 36 6 216 3 0 217 22 2 218 0 8 219 6 71 220 20 9 221 1 11 222 7 156 223 17 12 224 4 14 225 12 157 226 19 15 227 15 26 237 19 161 238 13 27 239 16 29 240 17 162 241 8 30 242 41 32 243 15 163 244 5 33 245 21 10 249 20 9 250 25 38 251 44 7 252 22 2 253 27 40 254 22 2 255 24 1 256 29 42 257 27 43 258 29 42 259 12 44 260 47 41 261 27 40 262 4 46 263 26 48 264 25 164 265 7 49 266 25 52 270 45 55 271 32 53 272 45 55 273 46 57 274 31 56 275 46 57 276 47 41 277 30 47 278 20 9 279 42 59 280 45 58 281 42 59 282 43 61 283 46 60 284 43 61 285 44 7 286 47 41 287 17 62 288 39 165 289 35 63 290 39 65 291 40 166 292 34 66 293 40 68 294 41 167 295 33 69 296 6 71 297 38 72 298 42 59 299 38 72 300 37 73 301 43 61 302 37 73 303 36 6 304 44 7 305 7 74 306 32 77 307 39 75 308 32 77 309 31 79 310 40 78 311 31 79 312 30 3 313 41 5 314 67 80 315 10 154 316 3 0 317 58 82 318 50 168 319 73 83 320 65 81 321 3 0 322 36 6 323 63 86 324 6 71 325 0 8 326 60 88 327 52 169 328 48 89 329 62 91 330 55 170 331 50 92 332 56 103 342 62 174 343 58 104 344 53 106 345 60 175 346 59 107 347 51 109 348 58 176 349 81 110 350 68 115 354 63 86 355 64 87 356 70 117 357 65 177 358 84 85 359 72 119 360 67 80 361 65 81 362 55 121 363 72 119 364 70 120 365 50 123 366 70 117 367 87 118 368 52 125 369 68 178 370 69 126 371 75 129 375 85 133 376 68 130 377 74 132 378 86 134 379 85 133 380 73 124 381 87 118 382 86 134 383 85 135 384 82 137 385 63 86 386 86 136 387 83 138 388 82 137 389 87 118 390 84 85 391 83 138 392 78 139 393 79 179 394 60 140 395 77 142 396 80 180 397 79 143 398 76 145 399 81 181 400 80 146 401 82 137 402 38 72 403 6 71 404 83 138 405 37 73 406 38 72 407 84 85 408 36 6 409 37 73 410 79 148 411 75 152 412 52 149 413 80 151 414 74 153 415 75 152 416 81 84 417 73 83 418 74 153 419</p>
        </triangles>
      </mesh>
    </geometry>
  </library_geometries>
  <library_visual_scenes>
    <visual_scene id="Scene" name="Scene">
      <node id="Кузов_001" name="Кузов.001" type="NODE">
        <matrix sid="transform">0.4421779 0 0 -0.02249195 0 0.4421779 -7.20399e-8 1.069119 0 7.20399e-8 0.4421779 1.717569 0 0 0 1</matrix>
        <instance_geometry url="#Куб_001-mesh" name="Кузов.001">
          <bind_material>
            <technique_common>
              <instance_material symbol="Материал_002-material" target="#Материал_002-material">
                <bind_vertex_input semantic="UVКарта" input_semantic="TEXCOORD" input_set="0"/>
              </instance_material>
              <instance_material symbol="Материал_001-material" target="#Материал_001-material">
                <bind_vertex_input semantic="UVКарта" input_semantic="TEXCOORD" input_set="0"/>
              </instance_material>
              <instance_material symbol="Материал_003-material" target="#Материал_003-material">
                <bind_vertex_input semantic="UVКарта" input_semantic="TEXCOORD" input_set="0"/>
              </instance_material>
              <instance_material symbol="Материал_004-material" target="#Материал_004-material">
                <bind_vertex_input semantic="UVКарта" input_semantic="TEXCOORD" input_set="0"/>
              </instance_material>
              <instance_material symbol="Стекло-material" target="#Стекло-material">
                <bind_vertex_input semantic="UVКарта" input_semantic="TEXCOORD" input_set="0"/>
              </instance_material>
              <instance_material symbol="Материал-material" target="#Материал-material">
                <bind_vertex_input semantic="UVКарта" input_semantic="TEXCOORD" input_set="0"/>
              </instance_material>
              <instance_material symbol="Материал_006-material" target="#Материал_006-material">
                <bind_vertex_input semantic="UVКарта" input_semantic="TEXCOORD" input_set="0"/>
              </instance_material>
            </technique_common>
          </bind_material>
        </instance_geometry>
      </node>
    </visual_scene>
  </library_visual_scenes>
  <scene>
    <instance_visual_scene url="#Scene"/>
  </scene>
</COLLADA>